<?xml version="1.0" encoding="iso-8859-1"?>
<!-- Generator: Adobe Illustrator 19.0.0, SVG Export Plug-In . SVG Version: 6.00 Build 0)  -->
<svg version="1.1" id="Capa_1" xmlns="http://www.w3.org/2000/svg" xmlns:xlink="http://www.w3.org/1999/xlink" x="0px" y="0px"
	 viewBox="0 0 480.006 480.006" style="enable-background:new 0 0 480.006 480.006;" xml:space="preserve">
<g>
	<g>
		<g>
			<path d="M432.003,192.006c4.418,0,8-3.582,8-8v-24h32c4.418,0,8-3.582,8-8v-80c0-3.599-2.403-6.755-5.872-7.712l-232-64
				c-1.392-0.392-2.864-0.392-4.256,0l-232,64c-3.469,0.957-5.872,4.113-5.872,7.712v80c0,4.418,3.582,8,8,8h32v24
				c0,4.418,3.582,8,8,8h8v128h-8c-4.418,0-8,3.582-8,8v24h-16c-4.418,0-8,3.582-8,8v24h-8c-4.418,0-8,3.582-8,8v32
				c0,4.418,3.582,8,8,8h184v40c0,4.418,3.582,8,8,8h272c4.418,0,8-3.582,8-8v-176c0-4.418-3.582-8-8-8h-48v-96H432.003z
				 M16.003,144.006V78.102l224-61.8l224,61.8v65.904H16.003z M272.003,176.006v-16h48v16h-8H272.003z M304.003,192.006v96h-16v-96
				H304.003z M320.003,192.006h8c4.418,0,8-3.582,8-8v-24h24v24c0,4.418,3.582,8,8,8h8v96h-56V192.006z M264.003,192.006h8v96h-64
				v-96h8c4.418,0,8-3.582,8-8v-24h32v24C256.003,188.424,259.585,192.006,264.003,192.006z M112.003,320.006h-8v-128h8
				c4.418,0,8-3.582,8-8v-24h24v24c0,4.418,3.582,8,8,8h8v128h-8c-4.418,0-8,3.582-8,8v24h-24v-24
				C120.003,323.588,116.421,320.006,112.003,320.006z M56.003,176.006v-16h48v16H56.003z M88.003,192.006v128h-16v-128H88.003z
				 M56.003,336.006h48v16h-48V336.006z M192.003,416.006h-176v-16h176V416.006z M192.003,384.006h-160v-16h160V384.006z
				 M192.003,352.006h-32v-16h32V352.006z M192.003,320.006h-16v-128h16V320.006z M160.003,176.006v-16h48v16h-8H160.003z
				 M464.003,464.006h-256v-96h256V464.006z M464.003,352.006h-256v-16h256V352.006z M464.003,304.006v16h-256v-16H464.003z
				 M392.003,288.006v-96h16v96H392.003z M376.003,176.006v-16h48v16H376.003z"/>
			<path d="M442.131,88.662l-200-55.2c-1.392-0.392-2.864-0.392-4.256,0l-200,55.2c-3.469,0.957-5.872,4.113-5.872,7.712v23.632
				c0,4.418,3.582,8,8,8h400c4.418,0,8-3.582,8-8V96.374C448.003,92.775,445.6,89.619,442.131,88.662z M432.003,112.006h-384v-9.536
				l192-52.968l192,52.968V112.006z"/>
			<path d="M216.003,80.006c0,13.255,10.745,24,24,24s24-10.745,24-24s-10.745-24-24-24S216.003,66.751,216.003,80.006z
				 M248.003,80.006c0,4.418-3.582,8-8,8s-8-3.582-8-8s3.582-8,8-8S248.003,75.588,248.003,80.006z"/>
			<path d="M408.003,441.766c9.809,8.915,24.987,8.19,33.903-1.618c8.915-9.809,8.19-24.987-1.618-33.903
				c-4.454-4.048-10.266-6.275-16.284-6.239v0c-5.923,0.021-11.627,2.245-16,6.24c-9.809-8.915-24.987-8.191-33.903,1.617
				c-8.915,9.809-8.191,24.987,1.617,33.903C384.872,450.086,398.849,450.086,408.003,441.766z M424.003,416.006
				c4.418,0,8,3.582,8,8s-3.582,8-8,8s-8-3.582-8-8S419.585,416.006,424.003,416.006z M392.003,416.006c4.418,0,8,3.582,8,8
				s-3.582,8-8,8s-8-3.582-8-8S387.585,416.006,392.003,416.006z"/>
			<path d="M232.003,432.006h16c4.418,0,8-3.582,8-8s-3.582-8-8-8h-16c-4.418,0-8,3.582-8,8S227.585,432.006,232.003,432.006z"/>
			<path d="M280.003,432.006h64c4.418,0,8-3.582,8-8s-3.582-8-8-8h-64c-4.418,0-8,3.582-8,8S275.585,432.006,280.003,432.006z"/>
		</g>
	</g>
</g>
<g>
</g>
<g>
</g>
<g>
</g>
<g>
</g>
<g>
</g>
<g>
</g>
<g>
</g>
<g>
</g>
<g>
</g>
<g>
</g>
<g>
</g>
<g>
</g>
<g>
</g>
<g>
</g>
<g>
</g>
</svg>
